<svg width="1536" height="53" viewBox="0 0 1536 53" fill="none" xmlns="http://www.w3.org/2000/svg">
<path fill-rule="evenodd" clip-rule="evenodd" d="M1027.82 0H1036.72C1064.06 1.109 1077.92 29.39 1106.84 24.947C1117.28 23.345 1125.96 17.274 1136.86 17.185C1162.95 16.975 1175.75 46.885 1200.08 52.069C1207.38 53.624 1215.04 53.419 1221.79 50.007C1227.72 47.015 1232.32 42.06 1236.3 36.877C1243.19 27.919 1249.33 18.208 1257.56 10.366C1262.04 6.104 1267.45 2.145 1273.59 0.845C1275.98 0.339 1278.38 0.125 1280.8 0H1290.82M244.82 0C340.265 0 369.853 46.115 412.804 46.115C464.345 46.115 496.794 0 570.289 0C623.976 0 640.619 25.94 664.778 25.94C693.771 25.94 712.025 0 753.364 0" fill="#FFBC0D"/>
</svg>
